<svg xmlns="http://www.w3.org/2000/svg" version="1.1" xmlns:xlink="http://www.w3.org/1999/xlink" xmlns:svgjs="http://svgjs.com/svgjs" width="377.61" height="158.51"><svg id="SvgjsSvg1001" data-name="Layer 2" xmlns="http://www.w3.org/2000/svg" viewBox="0 0 377.61 158.51">
  <defs>
    <style>
      .cls-1 {
        fill: #ffffff;
      }
    </style>
  </defs>
  <g id="SvgjsG1000" data-name="Layer 1">
    <g>
      <path class="cls-1" d="m152.11,158.11v-10.58c0-.33.68-.33,1.38-.33s1.37,0,1.37.33v8.15h4.77c.35,0,.35.66.35,1.34s0,1.33-.36,1.33h-7.28c-.12,0-.22-.11-.22-.23Z"></path>
      <path class="cls-1" d="m166.38,158.11s0-.07.03-.12l5.13-10.74c.08-.16.28-.16.48-.16s.39,0,.47.16l5.14,10.75s.03.08.03.11c0,.29-.7.3-1.38.3-.78,0-1.54,0-1.65-.26l-.57-1.4h-4.08l-.58,1.4c-.11.26-.88.26-1.65.26-.69,0-1.38,0-1.38-.3Zm4.59-3.58h2.14l-1.07-2.49-1.07,2.49Z"></path>
      <path class="cls-1" d="m183.39,152.8c0-3.25,2.44-5.69,5.79-5.69,1.5,0,2.63.3,3.66,1.04.06.05.1.14.1.27,0,.3-.16.78-.3,1.11-.24.59-.54,1.14-.83,1.14-.05,0-.09,0-.14-.04-.7-.5-1.61-.76-2.46-.76-1.5,0-2.85,1.2-2.85,2.93s1.33,3,2.83,3.01c1.25,0,1.94-.48,2.14-1.33h-2.1c-.33,0-.33-.58-.33-1.17s0-1.16.33-1.16h4.96c.25,0,.26.46.26.74,0,3.25-1.73,5.6-5.24,5.6s-5.82-2.45-5.82-5.7Z"></path>
      <path class="cls-1" d="m200.29,152.81c0-3.14,2.57-5.69,5.75-5.69s5.75,2.55,5.75,5.69-2.57,5.7-5.75,5.7-5.75-2.55-5.75-5.7Zm8.52,0c0-1.63-1.19-2.89-2.77-2.89s-2.78,1.26-2.78,2.89,1.2,2.9,2.78,2.9,2.77-1.28,2.77-2.9Z"></path>
      <path class="cls-1" d="m217.15,156.9s-.06-.1-.06-.16c0-.26.26-.63.53-1.01.33-.45.69-.88.93-.88.04,0,.07.02.1.04.5.43,1.55.98,2.44.98,1,0,1.42-.33,1.42-.74,0-.47-.67-.76-1.47-1.1-1.41-.58-3.45-1.43-3.45-3.54,0-1.95,1.66-3.39,4.18-3.39,1.49,0,2.83.51,3.6,1.18.05.04.06.11.06.19,0,.26-.22.68-.45,1.03-.31.49-.68.98-.98.98-.06,0-.11-.02-.16-.05-.46-.35-1.31-.66-2.07-.66-.85,0-1.21.27-1.21.65,0,.4.6.63,1.33.94,1.42.58,3.6,1.46,3.6,3.77,0,1.95-1.93,3.37-4.4,3.37-1.52,0-3.09-.62-3.95-1.61Z"></path>
    </g>
    <g>
      <path class="cls-1" d="m86.39,85.61h-24.29c0-3.61-1.4-5.63-19.39-5.63s-18.87.84-18.87,3.37c.16,1.81,1.39,1.9,18.66,3.31,38.14,3.11,46.3,3.64,46.3,21.31s-6.62,21.32-46.01,21.32c-36.27,0-41.83-3.59-41.83-23.6h23.59c0,4.09,1.72,5.02,19.27,5.02,16.49,0,18.32.17,18.32-2.98,0-2.2-2.03-1.78-20.02-3.26C14.21,102.17,0,100.8,0,83.12c0-20.33,11.83-22.4,42.12-22.4,35.95,0,44.27,5.01,44.27,24.89Z"></path>
      <path class="cls-1" d="m258.99,60.51c6.5,0,29.61.88,29.61,25.26,0,12.74-5.93,19.57-12.61,23.22l14.04,20.29-26.36-.12-11.67-16.15h-20.7v16.27l-22.77-68.78h50.45Zm6.37,26.02c0-5.73-5.86-5.94-8.87-5.94h-25.18v12.33h25.55c3.29,0,8.51-.67,8.51-6.4Z"></path>
      <path class="cls-1" d="m340.11,95.2l37.5,34.08h-30.95l-21.14-20.58-7.37,6.82v13.76h-22.77V60.51h22.77v27.3l21.78-20.57h30.95l-30.77,27.97Z"></path>
      <path class="cls-1" d="m218.66,135.69c-7.51-26.19-15.02-52.37-22.53-78.56-.03-.11-.05-.23-.06-.34-.26-5.82-.28-12.2.1-19.05.3-5.27,1.42-26.86,1.42-32.89l-8.25,3.73c-.52.24-.86.75-.86,1.33v13.27s0,.06,0,.09l-.2,3.15c-.05.77-.68,1.36-1.45,1.36h-3.79c-.8,0-1.46-.65-1.46-1.46V10.03c0-.56-.32-1.07-.83-1.32-3.12-1.48-6.25-2.97-9.37-4.45l2.15,19.08c.86,5.04,1.55,10.86,1.76,17.34.21,6.27-.07,11.96-.57,16.92,0,.09-.03.17-.05.26-7.38,25.95-14.77,51.89-22.15,77.84-.26.93.43,1.85,1.4,1.85h12.42c.69,0,1.29-.49,1.43-1.17l13.96-69.37c.14-.68.73-1.17,1.43-1.17h4.13c.69,0,1.29.49,1.43,1.17l14.04,69.37c.14.68.73,1.17,1.43,1.17h13.06c.97,0,1.67-.93,1.4-1.86Zm-30.25-77.72c0,.45-.37.82-.82.82h-5.18c-.45,0-.82-.37-.82-.82v-3.92c0-.45.37-.82.82-.82h5.18c.45,0,.82.37.82.82v3.92Zm0-9.85c0,.45-.37.82-.82.82h-5.18c-.45,0-.82-.37-.82-.82v-3.92c0-.45.37-.82.82-.82h5.18c.45,0,.82.37.82.82v3.92Zm0-9.85c0,.45-.37.82-.82.82h-5.18c-.45,0-.82-.37-.82-.82v-3.91c0-.45.37-.82.82-.82h5.18c.45,0,.82.37.82.82v3.91Z"></path>
      <polygon class="cls-1" points="165.59 0 170.13 51.85 163.6 .21 165.59 0"></polygon>
      <polygon class="cls-1" points="207.07 .21 200.54 51.85 205.08 0 207.07 .21"></polygon>
      <polygon class="cls-1" points="208.13 23.28 201.37 54.2 206.16 22.91 208.13 23.28"></polygon>
      <polygon class="cls-1" points="163.9 22.91 168.69 54.2 161.94 23.28 163.9 22.91"></polygon>
      <polygon class="cls-1" points="226 141.1 202.49 63.75 227.91 140.49 226 141.1"></polygon>
      <polygon class="cls-1" points="144.35 140.49 169.77 63.75 146.26 141.1 144.35 140.49"></polygon>
      <path class="cls-1" d="m116.95,115.34h26.23c.9,0,2.03-.05,3.32-.18l16.29-49.05c-7.21-5.28-16.62-5.6-20.4-5.6h-48.21v68.78h22.77v-13.95Zm0-34.58h24.33c3.2,0,9.42.24,9.42,6.89s-5.54,7.44-9.03,7.44h-24.72v-14.33Z"></path>
      <path class="cls-1" d="m171.97,91.15l.29,5.9c.2,4.05,2.88,7.2,6.11,7.2h14.14c2.5,0,4.75-1.9,5.68-4.8l2.05-6.38,3.17,21.45-3.84-2.54c-.88-.58-1.86-.89-2.86-.89h-20.7c-2.45,0-4.67,1.84-5.63,4.66l-2.52,7.41,4.11-32.03Z"></path>
    </g>
  </g>
</svg><style>@media (prefers-color-scheme: light) { :root { filter: none; } }
</style></svg>